<?xml version="1.0" encoding="UTF-8"?>
<svg xmlns="http://www.w3.org/2000/svg" xmlns:xlink="http://www.w3.org/1999/xlink" width="285pt" height="462pt" viewBox="0 0 285 462" version="1.1">
<g id="surface1">
<path style="fill:none;stroke-width:10.0006;stroke-linecap:butt;stroke-linejoin:miter;stroke:rgb(100%,100%,100%);stroke-opacity:1;stroke-miterlimit:22.9256;" d="M 722.890625 94.609375 C 789.6875 135.351563 879.179688 181.25 950.46875 198.632813 " transform="matrix(0.1,0,0,-0.1,0,462)"/>
<path style="fill:none;stroke-width:10.0006;stroke-linecap:butt;stroke-linejoin:miter;stroke:rgb(100%,100%,100%);stroke-opacity:1;stroke-miterlimit:22.9256;" d="M 717.226563 523.359375 C 768.320313 487.265625 898.515625 417.734375 962.890625 397.8125 " transform="matrix(0.1,0,0,-0.1,0,462)"/>
<path style=" stroke:none;fill-rule:evenodd;fill:rgb(19.993591%,59.959412%,80.076599%);fill-opacity:1;" d="M 104.972656 51.550781 L 130.859375 32.011719 L 98.222656 32.015625 L 87.550781 0.453125 L 76.636719 32.015625 L 44.152344 32.015625 L 70.136719 51.550781 L 60.640625 82.878906 L 87.460938 64.269531 L 114.226563 82.953125 L 104.972656 51.550781 "/>
<path style=" stroke:none;fill-rule:evenodd;fill:rgb(80.076599%,59.959412%,0%);fill-opacity:1;" d="M 100.726563 51.152344 L 120.316406 35.292969 L 95.617188 35.296875 L 87.539063 11.40625 L 79.28125 35.296875 L 54.695313 35.296875 L 74.359375 51.152344 L 67.328125 74.09375 L 87.625 60.011719 L 107.882813 74.152344 L 100.726563 51.152344 "/>
<path style=" stroke:none;fill-rule:evenodd;fill:rgb(19.993591%,59.959412%,80.076599%);fill-opacity:1;" d="M 215.957031 51.550781 L 241.84375 32.011719 L 209.207031 32.015625 L 198.535156 0.453125 L 187.621094 32.015625 L 155.136719 32.015625 L 181.121094 51.550781 L 171.621094 82.878906 L 198.441406 64.269531 L 225.210938 82.953125 L 215.957031 51.550781 "/>
<path style=" stroke:none;fill-rule:evenodd;fill:rgb(80.076599%,59.959412%,0%);fill-opacity:1;" d="M 211.710938 51.152344 L 231.300781 35.292969 L 206.601563 35.296875 L 198.523438 11.40625 L 190.261719 35.296875 L 165.679688 35.296875 L 185.34375 51.152344 L 178.3125 74.09375 L 198.609375 60.011719 L 218.867188 74.152344 L 211.710938 51.152344 "/>
<path style=" stroke:none;fill-rule:evenodd;fill:rgb(13.699341%,12.199402%,12.5%);fill-opacity:1;" d="M 236.386719 120.332031 L 236.386719 88.191406 L 49.359375 88.191406 L 49.359375 120.332031 L 236.386719 120.332031 "/>
<path style=" stroke:none;fill-rule:evenodd;fill:rgb(80.076599%,59.959412%,0%);fill-opacity:1;" d="M 51.25 118.738281 L 51.25 89.933594 L 234.46875 89.933594 L 234.46875 118.738281 L 51.25 118.738281 "/>
<path style=" stroke:none;fill-rule:evenodd;fill:rgb(13.699341%,12.199402%,12.5%);fill-opacity:1;" d="M 235.953125 195.554688 L 235.1875 377.472656 L 235.1875 377.519531 C 234.535156 383.695313 232.753906 388.695313 230.015625 392.691406 C 227.273438 396.695313 223.585938 399.660156 219.199219 401.828125 C 210.433594 406.148438 198.933594 407.3125 186.164063 407.320313 C 179.140625 407.320313 171.722656 406.957031 164.171875 406.546875 C 163.171875 406.410156 162.171875 406.589844 161.175781 406.988281 C 157.746094 408.261719 154.730469 410.273438 151.992188 412.875 C 148.816406 415.914063 146.027344 419.757813 143.476563 424.15625 L 142.683594 425.515625 L 141.832031 424.191406 C 139.148438 420.019531 136.484375 416.074219 133.480469 412.953125 C 130.671875 410.039063 127.59375 407.855469 123.910156 406.785156 C 123.515625 406.652344 123.105469 406.59375 122.679688 406.609375 C 119.132813 406.65625 115.746094 406.683594 112.519531 406.683594 C 99.808594 406.683594 89.488281 406.292969 81.152344 405.203125 C 72.820313 404.117188 66.46875 402.332031 61.730469 399.460938 C 58.566406 397.554688 56.136719 395.140625 54.390625 392.183594 C 52.058594 388.246094 50.945313 383.375 50.714844 377.417969 L 50.714844 377.402344 L 49.855469 195.554688 L 235.953125 195.554688 "/>
<path style=" stroke:none;fill-rule:evenodd;fill:rgb(80.076599%,59.959412%,0%);fill-opacity:1;" d="M 51.792969 195.554688 L 52.644531 376.914063 L 51.679688 376.914063 L 52.644531 376.878906 C 52.855469 382.695313 53.941406 387.277344 56.046875 390.878906 C 58.164063 394.472656 61.3125 397.164063 65.90625 399.207031 C 75.082031 403.292969 90.003906 404.570313 112.519531 404.5625 C 115.414063 404.5625 118.4375 404.542969 121.589844 404.503906 C 123.355469 404.484375 123.5625 404.421875 125.273438 405.007813 C 128.996094 406.28125 132.117188 408.601563 134.867188 411.5 C 137.675781 414.449219 140.214844 418.144531 142.613281 421.859375 L 142.738281 421.605469 C 145.101563 417.703125 147.699219 414.222656 150.667969 411.359375 C 153.449219 408.679688 156.566406 406.542969 160.101563 405.152344 C 162.511719 404.199219 162.40625 404.332031 164.902344 404.46875 C 172.230469 404.867188 179.394531 405.207031 186.164063 405.207031 C 193.28125 405.207031 199.960938 404.828125 205.910156 403.757813 C 211.863281 402.683594 217.078125 400.917969 221.308594 398.171875 C 224.132813 396.34375 226.519531 394.078125 228.425781 391.277344 C 230.957031 387.542969 232.644531 382.832031 233.269531 376.851563 L 234.226563 376.949219 L 233.269531 376.949219 L 234.023438 195.554688 L 51.792969 195.554688 "/>
<path style=" stroke:none;fill-rule:evenodd;fill:rgb(19.993591%,59.959412%,80.076599%);fill-opacity:1;" d="M 26.886719 117.476563 L 258.863281 117.476563 L 258.863281 196.707031 L 26.886719 196.707031 L 26.886719 117.476563 "/>
<path style=" stroke:none;fill-rule:evenodd;fill:rgb(100%,100%,100%);fill-opacity:1;" d="M 25.726563 149.8125 L 260.027344 149.8125 L 260.027344 166.769531 L 25.726563 166.769531 L 25.726563 149.8125 "/>
<path style=" stroke:none;fill-rule:evenodd;fill:rgb(13.699341%,12.199402%,12.5%);fill-opacity:1;" d="M 6.449219 210.570313 C 10.679688 213.75 13.425781 217.523438 16.230469 221.925781 C 17.824219 217.402344 21.199219 211.742188 24.921875 208.3125 C 28.988281 212.457031 31.476563 216.964844 33.570313 222.136719 C 36.699219 216.78125 40.222656 212.015625 45.714844 208.878906 C 50.355469 215.367188 51.300781 222.910156 51.304688 230.597656 C 51.304688 238.363281 49.707031 246.550781 46.929688 253.917969 C 44.148438 261.28125 40.191406 267.824219 35.402344 272.285156 C 32.210938 275.257813 28.632813 277.308594 24.785156 277.996094 L 24.613281 278.023438 L 24.441406 277.976563 C 21.183594 277.050781 18.113281 274.839844 15.320313 271.78125 C 12.523438 268.722656 10.003906 264.804688 7.871094 260.386719 C 3.609375 251.550781 0.910156 240.722656 0.90625 230.792969 C 0.90625 223.117188 2.292969 217.03125 6.449219 210.570313 "/>
<path style=" stroke:none;fill-rule:evenodd;fill:rgb(0%,65.098572%,31.399536%);fill-opacity:1;" d="M 6.855469 212.796875 C 6.429688 213.476563 5.949219 214.261719 5.589844 215.003906 C 9.105469 220.378906 12.714844 227.199219 14.570313 233.519531 C 14.785156 230.46875 15.128906 227.246094 15.621094 223.847656 C 13.269531 220.109375 10.476563 215.4375 6.855469 212.796875 "/>
<path style=" stroke:none;fill-rule:evenodd;fill:rgb(0%,65.098572%,31.399536%);fill-opacity:1;" d="M 32.695313 223.953125 C 33.503906 229.171875 33.996094 233.960938 34.214844 238.347656 C 34.191406 238.421875 34.167969 238.492188 34.144531 238.5625 L 34.226563 238.589844 C 34.828125 251.289063 33.53125 266.070313 24.882813 276.085938 C 20.398438 269.070313 15.847656 258.371094 15.839844 241.082031 C 15.839844 235.886719 16.472656 226.195313 17.207031 223.636719 C 18.65625 218.601563 22.777344 212.734375 24.871094 210.589844 C 28.214844 214.414063 30.980469 219.359375 32.695313 223.953125 "/>
<path style=" stroke:none;fill-rule:evenodd;fill:rgb(0%,65.098572%,31.399536%);fill-opacity:1;" d="M 46.605469 214.070313 C 42.273438 220.335938 38.453125 227.765625 35.53125 234.816406 C 35.265625 231.414063 34.84375 227.796875 34.253906 223.949219 C 37.582031 218.675781 39.847656 214.9375 45.011719 211.121094 C 45.65625 211.996094 46.160156 213.085938 46.605469 214.070313 "/>
<path style=" stroke:none;fill-rule:evenodd;fill:rgb(0%,65.098572%,31.399536%);fill-opacity:1;" d="M 27.132813 275.769531 C 35.089844 265.457031 36.359375 251.152344 35.769531 238.554688 C 38.292969 230.890625 42.867188 222.527344 47.3125 215.777344 C 48.984375 220.179688 49.765625 225.269531 49.761719 230.597656 C 49.765625 238.152344 47.933594 246.179688 45.222656 253.371094 C 42.679688 260.109375 39.769531 266.117188 34.351563 271.15625 C 32.089844 273.265625 29.664063 274.84375 27.132813 275.769531 "/>
<path style=" stroke:none;fill-rule:evenodd;fill:rgb(0%,65.098572%,31.399536%);fill-opacity:1;" d="M 4.828125 216.730469 C 8.957031 223.722656 14.300781 235.179688 14.300781 241.082031 C 14.292969 257.703125 18.476563 268.496094 22.84375 275.726563 C 20.652344 274.683594 18.496094 272.976563 16.457031 270.742188 C 7.34375 260.777344 2.445313 244.078125 2.445313 230.792969 C 2.445313 225.667969 3.195313 220.835938 4.828125 216.730469 "/>
<path style=" stroke:none;fill-rule:evenodd;fill:rgb(13.699341%,12.199402%,12.5%);fill-opacity:1;" d="M 6.449219 271.613281 C 10.679688 274.789063 13.425781 278.5625 16.230469 282.96875 C 17.824219 278.441406 21.199219 272.785156 24.921875 269.355469 C 28.988281 273.5 31.476563 278.003906 33.570313 283.175781 C 36.699219 277.824219 40.222656 273.058594 45.714844 269.917969 C 50.355469 276.40625 51.300781 283.949219 51.304688 291.636719 C 51.304688 299.40625 49.707031 307.59375 46.929688 314.957031 C 44.148438 322.320313 40.191406 328.863281 35.402344 333.328125 C 32.210938 336.300781 28.632813 338.351563 24.785156 339.035156 L 24.613281 339.066406 L 24.441406 339.019531 C 21.183594 338.089844 18.113281 335.878906 15.320313 332.824219 C 12.523438 329.765625 10.003906 325.84375 7.871094 321.425781 C 3.609375 312.589844 0.910156 301.765625 0.90625 291.835938 C 0.90625 284.15625 2.292969 278.070313 6.449219 271.613281 "/>
<path style=" stroke:none;fill-rule:evenodd;fill:rgb(0%,65.098572%,31.399536%);fill-opacity:1;" d="M 6.855469 273.839844 C 6.429688 274.519531 5.949219 275.304688 5.589844 276.046875 C 9.105469 281.421875 12.714844 288.242188 14.570313 294.558594 C 14.785156 291.507813 15.128906 288.289063 15.621094 284.886719 C 13.269531 281.148438 10.476563 276.480469 6.855469 273.839844 "/>
<path style=" stroke:none;fill-rule:evenodd;fill:rgb(0%,65.098572%,31.399536%);fill-opacity:1;" d="M 32.695313 284.996094 C 33.503906 290.214844 33.996094 295 34.214844 299.390625 C 34.191406 299.460938 34.167969 299.535156 34.144531 299.605469 L 34.226563 299.628906 C 34.828125 312.332031 33.53125 327.113281 24.882813 337.128906 C 20.398438 330.109375 15.847656 319.414063 15.839844 302.125 C 15.839844 296.929688 16.472656 287.238281 17.207031 284.675781 C 18.65625 279.640625 22.777344 273.777344 24.871094 271.632813 C 28.214844 275.453125 30.980469 280.398438 32.695313 284.996094 "/>
<path style=" stroke:none;fill-rule:evenodd;fill:rgb(0%,65.098572%,31.399536%);fill-opacity:1;" d="M 46.605469 275.113281 C 42.273438 281.375 38.453125 288.808594 35.53125 295.859375 C 35.265625 292.453125 34.84375 288.835938 34.253906 284.988281 C 37.582031 279.714844 39.847656 275.976563 45.011719 272.160156 C 45.65625 273.039063 46.160156 274.128906 46.605469 275.113281 "/>
<path style=" stroke:none;fill-rule:evenodd;fill:rgb(0%,65.098572%,31.399536%);fill-opacity:1;" d="M 27.132813 336.808594 C 35.089844 326.5 36.359375 312.191406 35.769531 299.597656 C 38.292969 291.929688 42.867188 283.566406 47.3125 276.816406 C 48.984375 281.21875 49.765625 286.308594 49.761719 291.636719 C 49.765625 299.191406 47.933594 307.21875 45.222656 314.414063 C 42.679688 321.152344 39.769531 327.15625 34.351563 332.199219 C 32.089844 334.308594 29.664063 335.886719 27.132813 336.808594 "/>
<path style=" stroke:none;fill-rule:evenodd;fill:rgb(0%,65.098572%,31.399536%);fill-opacity:1;" d="M 4.828125 277.773438 C 8.957031 284.761719 14.300781 296.21875 14.300781 302.125 C 14.292969 318.742188 18.476563 329.535156 22.84375 336.765625 C 20.652344 335.722656 18.496094 334.019531 16.457031 331.785156 C 7.34375 321.816406 2.445313 305.121094 2.445313 291.835938 C 2.445313 286.710938 3.195313 281.875 4.828125 277.773438 "/>
<path style=" stroke:none;fill-rule:evenodd;fill:rgb(13.699341%,12.199402%,12.5%);fill-opacity:1;" d="M 6.449219 332.652344 C 10.679688 335.832031 13.425781 339.605469 16.230469 344.007813 C 17.824219 339.484375 21.199219 333.824219 24.921875 330.394531 C 28.988281 334.539063 31.476563 339.046875 33.570313 344.21875 C 36.699219 338.863281 40.222656 334.097656 45.714844 330.960938 C 50.355469 337.449219 51.300781 344.992188 51.304688 352.679688 C 51.304688 360.445313 49.707031 368.632813 46.929688 376 C 44.148438 383.363281 40.191406 389.90625 35.402344 394.367188 C 32.210938 397.339844 28.632813 399.390625 24.785156 400.078125 L 24.613281 400.105469 L 24.441406 400.058594 C 21.183594 399.132813 18.113281 396.921875 15.320313 393.863281 C 12.523438 390.804688 10.003906 386.886719 7.871094 382.46875 C 3.609375 373.632813 0.910156 362.804688 0.90625 352.875 C 0.90625 345.199219 2.292969 339.113281 6.449219 332.652344 "/>
<path style=" stroke:none;fill-rule:evenodd;fill:rgb(0%,65.098572%,31.399536%);fill-opacity:1;" d="M 6.855469 334.878906 C 6.429688 335.558594 5.949219 336.34375 5.589844 337.085938 C 9.105469 342.460938 12.714844 349.28125 14.570313 355.601563 C 14.785156 352.550781 15.128906 349.328125 15.621094 345.929688 C 13.269531 342.191406 10.476563 337.519531 6.855469 334.878906 "/>
<path style=" stroke:none;fill-rule:evenodd;fill:rgb(0%,65.098572%,31.399536%);fill-opacity:1;" d="M 32.695313 346.035156 C 33.503906 351.253906 33.996094 356.039063 34.214844 360.429688 C 34.191406 360.503906 34.167969 360.574219 34.144531 360.644531 L 34.226563 360.671875 C 34.828125 373.371094 33.53125 388.152344 24.882813 398.167969 C 20.398438 391.152344 15.847656 380.457031 15.839844 363.164063 C 15.839844 357.96875 16.472656 348.277344 17.207031 345.71875 C 18.65625 340.683594 22.777344 334.816406 24.871094 332.671875 C 28.214844 336.496094 30.980469 341.441406 32.695313 346.035156 "/>
<path style=" stroke:none;fill-rule:evenodd;fill:rgb(0%,65.098572%,31.399536%);fill-opacity:1;" d="M 46.605469 336.152344 C 42.273438 342.417969 38.453125 349.847656 35.53125 356.898438 C 35.265625 353.496094 34.84375 349.878906 34.253906 346.03125 C 37.582031 340.757813 39.847656 337.019531 45.011719 333.203125 C 45.65625 334.078125 46.160156 335.167969 46.605469 336.152344 "/>
<path style=" stroke:none;fill-rule:evenodd;fill:rgb(0%,65.098572%,31.399536%);fill-opacity:1;" d="M 27.132813 397.851563 C 35.089844 387.539063 36.359375 373.234375 35.769531 360.636719 C 38.292969 352.972656 42.867188 344.609375 47.3125 337.859375 C 48.984375 342.261719 49.765625 347.351563 49.761719 352.679688 C 49.765625 360.234375 47.933594 368.261719 45.222656 375.453125 C 42.679688 382.191406 39.769531 388.199219 34.351563 393.238281 C 32.089844 395.347656 29.664063 396.925781 27.132813 397.851563 "/>
<path style=" stroke:none;fill-rule:evenodd;fill:rgb(0%,65.098572%,31.399536%);fill-opacity:1;" d="M 4.828125 338.8125 C 8.957031 345.804688 14.300781 357.261719 14.300781 363.164063 C 14.292969 379.785156 18.476563 390.578125 22.84375 397.808594 C 20.652344 396.765625 18.496094 395.058594 16.457031 392.824219 C 7.34375 382.859375 2.445313 366.164063 2.445313 352.875 C 2.445313 347.75 3.195313 342.914063 4.828125 338.8125 "/>
<path style=" stroke:none;fill-rule:evenodd;fill:rgb(13.699341%,12.199402%,12.5%);fill-opacity:1;" d="M 5.730469 410.132813 C 10.96875 409.386719 15.578125 410.117188 20.671875 411.246094 C 18.601563 406.917969 16.988281 400.53125 17.195313 395.472656 C 23.003906 395.527344 27.945313 396.957031 33.082031 399.132813 C 31.511719 393.132813 30.632813 387.273438 32.296875 381.167969 C 40.164063 382.476563 46.167969 387.140625 51.605469 392.574219 C 57.097656 398.070313 61.757813 404.988281 65.003906 412.160156 C 68.242188 419.332031 70.070313 426.757813 69.839844 433.296875 C 69.683594 437.65625 68.605469 441.636719 66.371094 444.84375 L 66.269531 444.988281 L 66.113281 445.074219 C 63.152344 446.722656 59.417969 447.332031 55.28125 447.144531 C 51.144531 446.957031 46.589844 445.96875 41.957031 444.351563 C 32.699219 441.117188 23.132813 435.371094 16.105469 428.351563 C 10.679688 422.921875 7.355469 417.640625 5.730469 410.132813 "/>
<path style=" stroke:none;fill-rule:evenodd;fill:rgb(0%,65.098572%,31.399536%);fill-opacity:1;" d="M 7.589844 411.417969 C 7.769531 412.203125 7.988281 413.09375 8.253906 413.875 C 14.542969 415.1875 21.917969 417.460938 27.699219 420.613281 C 25.691406 418.308594 23.65625 415.789063 21.601563 413.035156 C 17.296875 412.054688 12.015625 410.726563 7.589844 411.417969 "/>
<path style=" stroke:none;fill-rule:evenodd;fill:rgb(0%,65.098572%,31.399536%);fill-opacity:1;" d="M 33.75 401.039063 C 38.011719 404.15625 41.746094 407.191406 45.003906 410.140625 C 45.039063 410.207031 45.074219 410.277344 45.105469 410.34375 L 45.179688 410.304688 C 54.589844 418.859375 64.125 430.226563 65.089844 443.425781 C 56.957031 441.632813 46.175781 437.289063 33.945313 425.066406 C 30.269531 421.394531 23.863281 414.09375 22.574219 411.761719 C 20.039063 407.175781 18.804688 400.117188 18.769531 397.121094 C 23.835938 397.460938 29.289063 399 33.75 401.039063 "/>
<path style=" stroke:none;fill-rule:evenodd;fill:rgb(0%,65.098572%,31.399536%);fill-opacity:1;" d="M 36.597656 384.210938 C 37.964844 391.707031 40.519531 399.660156 43.4375 406.714844 C 40.84375 404.496094 37.988281 402.234375 34.847656 399.929688 C 33.472656 393.847656 32.433594 389.601563 33.386719 383.253906 C 34.460938 383.417969 35.585938 383.832031 36.597656 384.210938 "/>
<path style=" stroke:none;fill-rule:evenodd;fill:rgb(0%,65.098572%,31.399536%);fill-opacity:1;" d="M 66.457031 441.609375 C 64.792969 428.691406 55.574219 417.675781 46.25 409.191406 C 42.613281 401.984375 39.933594 392.835938 38.304688 384.917969 C 42.601563 386.847656 46.75 389.898438 50.515625 393.664063 C 55.859375 399.007813 60.242188 405.976563 63.410156 412.980469 C 66.378906 419.542969 68.566406 425.847656 68.300781 433.242188 C 68.191406 436.335938 67.59375 439.167969 66.457031 441.609375 "/>
<path style=" stroke:none;fill-rule:evenodd;fill:rgb(0%,65.098572%,31.399536%);fill-opacity:1;" d="M 8.9375 415.636719 C 16.800781 417.65625 28.679688 421.980469 32.855469 426.15625 C 44.601563 437.910156 55.191406 442.585938 63.390625 444.613281 C 61.105469 445.421875 58.375 445.742188 55.351563 445.605469 C 41.863281 445 26.59375 436.65625 17.195313 427.261719 C 13.574219 423.640625 10.683594 419.691406 8.9375 415.636719 "/>
<path style=" stroke:none;fill-rule:evenodd;fill:rgb(13.699341%,12.199402%,12.5%);fill-opacity:1;" d="M 64.050781 450.914063 C 67.230469 446.683594 71.003906 443.941406 75.40625 441.136719 C 70.882813 439.539063 65.222656 436.164063 61.796875 432.441406 C 65.941406 428.375 70.445313 425.886719 75.617188 423.796875 C 70.265625 420.667969 65.496094 417.140625 62.359375 411.648438 C 68.847656 407.011719 76.390625 406.0625 84.078125 406.058594 C 91.847656 406.0625 100.035156 407.65625 107.398438 410.433594 C 114.761719 413.214844 121.304688 417.171875 125.769531 421.960938 C 128.738281 425.152344 130.789063 428.730469 131.476563 432.578125 L 131.507813 432.753906 L 131.460938 432.921875 C 130.53125 436.183594 128.320313 439.253906 125.265625 442.046875 C 122.203125 444.839844 118.285156 447.363281 113.867188 449.496094 C 105.03125 453.753906 94.207031 456.457031 84.273438 456.460938 C 76.597656 456.457031 70.511719 455.074219 64.050781 450.914063 "/>
<path style=" stroke:none;fill-rule:evenodd;fill:rgb(0%,65.098572%,31.399536%);fill-opacity:1;" d="M 66.28125 450.511719 C 66.960938 450.9375 67.746094 451.414063 68.484375 451.777344 C 73.859375 448.257813 80.679688 444.652344 87 442.792969 C 83.949219 442.582031 80.730469 442.238281 77.328125 441.746094 C 73.589844 444.09375 68.921875 446.890625 66.28125 450.511719 "/>
<path style=" stroke:none;fill-rule:evenodd;fill:rgb(0%,65.098572%,31.399536%);fill-opacity:1;" d="M 77.4375 424.671875 C 82.65625 423.859375 87.441406 423.367188 91.828125 423.152344 C 91.902344 423.175781 91.976563 423.199219 92.046875 423.21875 L 92.070313 423.140625 C 104.773438 422.539063 119.554688 423.832031 129.570313 432.480469 C 122.550781 436.964844 111.855469 441.519531 94.566406 441.523438 C 89.367188 441.523438 79.679688 440.894531 77.117188 440.15625 C 72.082031 438.707031 66.21875 434.589844 64.074219 432.496094 C 67.894531 429.152344 72.839844 426.386719 77.4375 424.671875 "/>
<path style=" stroke:none;fill-rule:evenodd;fill:rgb(0%,65.098572%,31.399536%);fill-opacity:1;" d="M 67.554688 410.757813 C 73.816406 415.089844 81.246094 418.910156 88.300781 421.832031 C 84.898438 422.097656 81.277344 422.519531 77.429688 423.109375 C 72.15625 419.78125 68.417969 417.515625 64.601563 412.351563 C 65.480469 411.710938 66.570313 411.203125 67.554688 410.757813 "/>
<path style=" stroke:none;fill-rule:evenodd;fill:rgb(0%,65.098572%,31.399536%);fill-opacity:1;" d="M 129.25 430.230469 C 118.941406 422.273438 104.632813 421.003906 92.039063 421.597656 C 84.371094 419.070313 76.007813 414.5 69.257813 410.050781 C 73.660156 408.378906 78.75 407.601563 84.078125 407.601563 C 91.632813 407.601563 99.660156 409.429688 106.855469 412.144531 C 113.59375 414.683594 119.597656 417.59375 124.640625 423.011719 C 126.746094 425.277344 128.328125 427.703125 129.25 430.230469 "/>
<path style=" stroke:none;fill-rule:evenodd;fill:rgb(0%,65.098572%,31.399536%);fill-opacity:1;" d="M 70.214844 452.539063 C 77.203125 448.40625 88.660156 443.066406 94.566406 443.066406 C 111.183594 443.070313 121.976563 438.890625 129.207031 434.523438 C 128.164063 436.710938 126.460938 438.871094 124.226563 440.910156 C 114.257813 450.019531 97.5625 454.917969 84.273438 454.917969 C 79.148438 454.917969 74.316406 454.167969 70.214844 452.539063 "/>
<path style=" stroke:none;fill-rule:evenodd;fill:rgb(13.699341%,12.199402%,12.5%);fill-opacity:1;" d="M 239.515625 210.570313 C 243.746094 213.75 246.488281 217.523438 249.296875 221.925781 C 250.890625 217.402344 254.265625 211.742188 257.988281 208.3125 C 262.054688 212.457031 264.542969 216.964844 266.636719 222.136719 C 269.765625 216.78125 273.289063 212.015625 278.78125 208.878906 C 283.421875 215.367188 284.367188 222.910156 284.371094 230.597656 C 284.367188 238.363281 282.773438 246.550781 279.996094 253.917969 C 277.214844 261.28125 273.257813 267.824219 268.46875 272.285156 C 265.277344 275.257813 261.699219 277.308594 257.851563 277.996094 L 257.675781 278.023438 L 257.507813 277.976563 C 254.246094 277.050781 251.179688 274.839844 248.382813 271.78125 C 245.589844 268.722656 243.066406 264.804688 240.9375 260.386719 C 236.675781 251.550781 233.972656 240.722656 233.972656 230.792969 C 233.972656 223.117188 235.355469 217.03125 239.515625 210.570313 "/>
<path style=" stroke:none;fill-rule:evenodd;fill:rgb(0%,65.098572%,31.399536%);fill-opacity:1;" d="M 239.921875 212.796875 C 239.492188 213.476563 239.015625 214.261719 238.65625 215.003906 C 242.171875 220.378906 245.78125 227.199219 247.636719 233.519531 C 247.851563 230.46875 248.195313 227.246094 248.6875 223.847656 C 246.335938 220.109375 243.539063 215.4375 239.921875 212.796875 "/>
<path style=" stroke:none;fill-rule:evenodd;fill:rgb(0%,65.098572%,31.399536%);fill-opacity:1;" d="M 265.761719 223.953125 C 266.570313 229.171875 267.0625 233.960938 267.28125 238.347656 C 267.257813 238.421875 267.234375 238.492188 267.210938 238.5625 L 267.292969 238.589844 C 267.894531 251.289063 266.597656 266.070313 257.949219 276.085938 C 253.464844 269.070313 248.910156 258.371094 248.90625 241.082031 C 248.90625 235.886719 249.535156 226.195313 250.273438 223.636719 C 251.722656 218.601563 255.839844 212.734375 257.933594 210.589844 C 261.277344 214.414063 264.046875 219.359375 265.761719 223.953125 "/>
<path style=" stroke:none;fill-rule:evenodd;fill:rgb(0%,65.098572%,31.399536%);fill-opacity:1;" d="M 279.671875 214.070313 C 275.339844 220.335938 271.519531 227.765625 268.597656 234.816406 C 268.332031 231.414063 267.910156 227.796875 267.320313 223.949219 C 270.648438 218.675781 272.914063 214.9375 278.078125 211.121094 C 278.71875 211.996094 279.226563 213.085938 279.671875 214.070313 "/>
<path style=" stroke:none;fill-rule:evenodd;fill:rgb(0%,65.098572%,31.399536%);fill-opacity:1;" d="M 260.199219 275.769531 C 268.15625 265.457031 269.425781 251.152344 268.832031 238.554688 C 271.359375 230.890625 275.933594 222.527344 280.378906 215.777344 C 282.050781 220.179688 282.828125 225.269531 282.828125 230.597656 C 282.832031 238.152344 281 246.179688 278.285156 253.371094 C 275.746094 260.109375 272.835938 266.117188 267.417969 271.15625 C 265.152344 273.265625 262.730469 274.84375 260.199219 275.769531 "/>
<path style=" stroke:none;fill-rule:evenodd;fill:rgb(0%,65.098572%,31.399536%);fill-opacity:1;" d="M 237.894531 216.730469 C 242.023438 223.722656 247.363281 235.179688 247.363281 241.082031 C 247.359375 257.703125 251.542969 268.496094 255.90625 275.726563 C 253.71875 274.683594 251.5625 272.976563 249.523438 270.742188 C 240.410156 260.777344 235.511719 244.078125 235.511719 230.792969 C 235.511719 225.667969 236.261719 220.835938 237.894531 216.730469 "/>
<path style=" stroke:none;fill-rule:evenodd;fill:rgb(13.699341%,12.199402%,12.5%);fill-opacity:1;" d="M 239.515625 271.613281 C 243.746094 274.789063 246.488281 278.5625 249.296875 282.96875 C 250.890625 278.441406 254.265625 272.785156 257.988281 269.355469 C 262.054688 273.5 264.542969 278.003906 266.636719 283.175781 C 269.765625 277.824219 273.289063 273.058594 278.78125 269.917969 C 283.421875 276.40625 284.367188 283.949219 284.371094 291.636719 C 284.367188 299.40625 282.773438 307.59375 279.996094 314.957031 C 277.214844 322.320313 273.257813 328.863281 268.46875 333.328125 C 265.277344 336.300781 261.699219 338.351563 257.851563 339.035156 L 257.675781 339.066406 L 257.507813 339.019531 C 254.246094 338.089844 251.179688 335.878906 248.382813 332.824219 C 245.589844 329.765625 243.066406 325.84375 240.9375 321.425781 C 236.675781 312.589844 233.972656 301.765625 233.972656 291.835938 C 233.972656 284.15625 235.355469 278.070313 239.515625 271.613281 "/>
<path style=" stroke:none;fill-rule:evenodd;fill:rgb(0%,65.098572%,31.399536%);fill-opacity:1;" d="M 239.921875 273.839844 C 239.492188 274.519531 239.015625 275.304688 238.65625 276.046875 C 242.171875 281.421875 245.78125 288.242188 247.636719 294.558594 C 247.851563 291.507813 248.195313 288.289063 248.6875 284.886719 C 246.335938 281.148438 243.539063 276.480469 239.921875 273.839844 "/>
<path style=" stroke:none;fill-rule:evenodd;fill:rgb(0%,65.098572%,31.399536%);fill-opacity:1;" d="M 265.761719 284.996094 C 266.570313 290.214844 267.0625 295 267.28125 299.390625 C 267.257813 299.460938 267.234375 299.535156 267.210938 299.605469 L 267.292969 299.628906 C 267.894531 312.332031 266.597656 327.113281 257.949219 337.128906 C 253.464844 330.109375 248.910156 319.414063 248.90625 302.125 C 248.90625 296.929688 249.535156 287.238281 250.273438 284.675781 C 251.722656 279.640625 255.839844 273.777344 257.933594 271.632813 C 261.277344 275.453125 264.046875 280.398438 265.761719 284.996094 "/>
<path style=" stroke:none;fill-rule:evenodd;fill:rgb(0%,65.098572%,31.399536%);fill-opacity:1;" d="M 279.671875 275.113281 C 275.339844 281.375 271.519531 288.808594 268.597656 295.859375 C 268.332031 292.453125 267.910156 288.835938 267.320313 284.988281 C 270.648438 279.714844 272.914063 275.976563 278.078125 272.160156 C 278.71875 273.039063 279.226563 274.128906 279.671875 275.113281 "/>
<path style=" stroke:none;fill-rule:evenodd;fill:rgb(0%,65.098572%,31.399536%);fill-opacity:1;" d="M 260.199219 336.808594 C 268.15625 326.5 269.425781 312.191406 268.832031 299.597656 C 271.359375 291.929688 275.933594 283.566406 280.378906 276.816406 C 282.050781 281.21875 282.828125 286.308594 282.828125 291.636719 C 282.832031 299.191406 281 307.21875 278.285156 314.414063 C 275.746094 321.152344 272.835938 327.15625 267.417969 332.199219 C 265.152344 334.308594 262.730469 335.886719 260.199219 336.808594 "/>
<path style=" stroke:none;fill-rule:evenodd;fill:rgb(0%,65.098572%,31.399536%);fill-opacity:1;" d="M 237.894531 277.773438 C 242.023438 284.761719 247.363281 296.21875 247.363281 302.125 C 247.359375 318.742188 251.542969 329.535156 255.90625 336.765625 C 253.71875 335.722656 251.5625 334.019531 249.523438 331.785156 C 240.410156 321.816406 235.511719 305.121094 235.511719 291.835938 C 235.511719 286.710938 236.261719 281.875 237.894531 277.773438 "/>
<path style=" stroke:none;fill-rule:evenodd;fill:rgb(13.699341%,12.199402%,12.5%);fill-opacity:1;" d="M 239.515625 332.652344 C 243.746094 335.832031 246.488281 339.605469 249.296875 344.007813 C 250.890625 339.484375 254.265625 333.824219 257.988281 330.394531 C 262.054688 334.539063 264.542969 339.046875 266.636719 344.21875 C 269.765625 338.863281 273.289063 334.097656 278.78125 330.960938 C 283.421875 337.449219 284.367188 344.992188 284.371094 352.679688 C 284.367188 360.445313 282.773438 368.632813 279.996094 376 C 277.214844 383.363281 273.257813 389.90625 268.46875 394.367188 C 265.277344 397.339844 261.699219 399.390625 257.851563 400.078125 L 257.675781 400.105469 L 257.507813 400.058594 C 254.246094 399.132813 251.179688 396.921875 248.382813 393.863281 C 245.589844 390.804688 243.066406 386.886719 240.9375 382.46875 C 236.675781 373.632813 233.972656 362.804688 233.972656 352.875 C 233.972656 345.199219 235.355469 339.113281 239.515625 332.652344 "/>
<path style=" stroke:none;fill-rule:evenodd;fill:rgb(0%,65.098572%,31.399536%);fill-opacity:1;" d="M 239.921875 334.878906 C 239.492188 335.558594 239.015625 336.34375 238.65625 337.085938 C 242.171875 342.460938 245.78125 349.28125 247.636719 355.601563 C 247.851563 352.550781 248.195313 349.328125 248.6875 345.929688 C 246.335938 342.191406 243.539063 337.519531 239.921875 334.878906 "/>
<path style=" stroke:none;fill-rule:evenodd;fill:rgb(0%,65.098572%,31.399536%);fill-opacity:1;" d="M 265.761719 346.035156 C 266.570313 351.253906 267.0625 356.039063 267.28125 360.429688 C 267.257813 360.503906 267.234375 360.574219 267.210938 360.644531 L 267.292969 360.671875 C 267.894531 373.371094 266.597656 388.152344 257.949219 398.167969 C 253.464844 391.152344 248.910156 380.457031 248.90625 363.164063 C 248.90625 357.96875 249.535156 348.277344 250.273438 345.71875 C 251.722656 340.683594 255.839844 334.816406 257.933594 332.671875 C 261.277344 336.496094 264.046875 341.441406 265.761719 346.035156 "/>
<path style=" stroke:none;fill-rule:evenodd;fill:rgb(0%,65.098572%,31.399536%);fill-opacity:1;" d="M 279.671875 336.152344 C 275.339844 342.417969 271.519531 349.847656 268.597656 356.898438 C 268.332031 353.496094 267.910156 349.878906 267.320313 346.03125 C 270.648438 340.757813 272.914063 337.019531 278.078125 333.203125 C 278.71875 334.078125 279.226563 335.167969 279.671875 336.152344 "/>
<path style=" stroke:none;fill-rule:evenodd;fill:rgb(0%,65.098572%,31.399536%);fill-opacity:1;" d="M 260.199219 397.851563 C 268.15625 387.539063 269.425781 373.234375 268.832031 360.636719 C 271.359375 352.972656 275.933594 344.609375 280.378906 337.859375 C 282.050781 342.261719 282.828125 347.351563 282.828125 352.679688 C 282.832031 360.234375 281 368.261719 278.285156 375.453125 C 275.746094 382.191406 272.835938 388.199219 267.417969 393.238281 C 265.152344 395.347656 262.730469 396.925781 260.199219 397.851563 "/>
<path style=" stroke:none;fill-rule:evenodd;fill:rgb(0%,65.098572%,31.399536%);fill-opacity:1;" d="M 237.894531 338.8125 C 242.023438 345.804688 247.363281 357.261719 247.363281 363.164063 C 247.359375 379.785156 251.542969 390.578125 255.90625 397.808594 C 253.71875 396.765625 251.5625 395.058594 249.523438 392.824219 C 240.410156 382.859375 235.511719 366.164063 235.511719 352.875 C 235.511719 347.75 236.261719 342.914063 237.894531 338.8125 "/>
<path style=" stroke:none;fill-rule:evenodd;fill:rgb(13.699341%,12.199402%,12.5%);fill-opacity:1;" d="M 280.203125 411.378906 C 274.964844 410.632813 270.355469 411.363281 265.257813 412.492188 C 267.328125 408.164063 268.945313 401.777344 268.738281 396.71875 C 262.929688 396.773438 257.988281 398.199219 252.847656 400.378906 C 254.421875 394.378906 255.300781 388.519531 253.636719 382.414063 C 245.765625 383.722656 239.761719 388.386719 234.324219 393.820313 C 228.835938 399.316406 224.171875 406.234375 220.929688 413.40625 C 217.6875 420.578125 215.859375 428.003906 216.089844 434.542969 C 216.246094 438.902344 217.324219 442.882813 219.5625 446.089844 L 219.664063 446.234375 L 219.816406 446.320313 C 222.777344 447.96875 226.511719 448.578125 230.648438 448.390625 C 234.789063 448.203125 239.34375 447.214844 243.972656 445.597656 C 253.234375 442.363281 262.800781 436.617188 269.824219 429.597656 C 275.253906 424.167969 278.578125 418.886719 280.203125 411.378906 "/>
<path style=" stroke:none;fill-rule:evenodd;fill:rgb(0%,65.098572%,31.399536%);fill-opacity:1;" d="M 278.34375 412.664063 C 278.164063 413.449219 277.945313 414.339844 277.675781 415.121094 C 271.390625 416.433594 264.015625 418.707031 258.234375 421.859375 C 260.242188 419.554688 262.273438 417.035156 264.332031 414.28125 C 268.636719 413.296875 273.914063 411.972656 278.34375 412.664063 "/>
<path style=" stroke:none;fill-rule:evenodd;fill:rgb(0%,65.098572%,31.399536%);fill-opacity:1;" d="M 252.183594 402.28125 C 247.921875 405.402344 244.1875 408.4375 240.929688 411.386719 C 240.894531 411.453125 240.859375 411.523438 240.824219 411.589844 L 240.75 411.550781 C 231.34375 420.105469 221.808594 431.472656 220.84375 444.671875 C 228.976563 442.878906 239.757813 438.535156 251.988281 426.3125 C 255.660156 422.640625 262.066406 415.339844 263.355469 413.007813 C 265.894531 408.421875 267.128906 401.363281 267.164063 398.367188 C 262.097656 398.707031 256.644531 400.246094 252.183594 402.28125 "/>
<path style=" stroke:none;fill-rule:evenodd;fill:rgb(0%,65.098572%,31.399536%);fill-opacity:1;" d="M 249.332031 385.457031 C 247.96875 392.949219 245.414063 400.90625 242.492188 407.960938 C 245.089844 405.738281 247.945313 403.476563 251.085938 401.175781 C 252.460938 395.09375 253.5 390.847656 252.546875 384.5 C 251.472656 384.664063 250.34375 385.078125 249.332031 385.457031 "/>
<path style=" stroke:none;fill-rule:evenodd;fill:rgb(0%,65.098572%,31.399536%);fill-opacity:1;" d="M 219.476563 442.855469 C 221.140625 429.9375 230.359375 418.921875 239.683594 410.4375 C 243.320313 403.230469 245.996094 394.082031 247.628906 386.164063 C 243.332031 388.09375 239.183594 391.144531 235.414063 394.910156 C 230.070313 400.253906 225.691406 407.222656 222.523438 414.226563 C 219.554688 420.789063 217.367188 427.09375 217.632813 434.488281 C 217.742188 437.582031 218.339844 440.414063 219.476563 442.855469 "/>
<path style=" stroke:none;fill-rule:evenodd;fill:rgb(0%,65.098572%,31.399536%);fill-opacity:1;" d="M 276.992188 416.882813 C 269.132813 418.902344 257.253906 423.226563 253.078125 427.402344 C 241.328125 439.15625 230.742188 443.832031 222.539063 445.859375 C 224.828125 446.667969 227.558594 446.988281 230.578125 446.851563 C 244.070313 446.246094 259.339844 437.90625 268.734375 428.507813 C 272.359375 424.886719 275.246094 420.9375 276.992188 416.882813 "/>
<path style=" stroke:none;fill-rule:evenodd;fill:rgb(13.699341%,12.199402%,12.5%);fill-opacity:1;" d="M 221.878906 452.160156 C 218.703125 447.929688 214.925781 445.1875 210.523438 442.382813 C 215.050781 440.785156 220.707031 437.410156 224.136719 433.6875 C 219.992188 429.621094 215.488281 427.132813 210.3125 425.042969 C 215.667969 421.910156 220.433594 418.386719 223.574219 412.894531 C 217.082031 408.257813 209.539063 407.308594 201.855469 407.304688 C 194.085938 407.308594 185.898438 408.902344 178.53125 411.679688 C 171.171875 414.460938 164.628906 418.417969 160.164063 423.207031 C 157.191406 426.398438 155.140625 429.976563 154.457031 433.824219 L 154.425781 434 L 154.472656 434.167969 C 155.402344 437.429688 157.609375 440.5 160.667969 443.292969 C 163.726563 446.085938 167.648438 448.609375 172.0625 450.742188 C 180.898438 455 191.726563 457.703125 201.65625 457.707031 C 209.335938 457.703125 215.421875 456.320313 221.878906 452.160156 "/>
<path style=" stroke:none;fill-rule:evenodd;fill:rgb(0%,65.098572%,31.399536%);fill-opacity:1;" d="M 219.652344 451.753906 C 218.972656 452.183594 218.1875 452.660156 217.445313 453.019531 C 212.070313 449.503906 205.25 445.898438 198.933594 444.039063 C 201.980469 443.828125 205.203125 443.480469 208.605469 442.992188 C 212.339844 445.339844 217.011719 448.136719 219.652344 451.753906 "/>
<path style=" stroke:none;fill-rule:evenodd;fill:rgb(0%,65.098572%,31.399536%);fill-opacity:1;" d="M 208.496094 425.917969 C 203.277344 425.105469 198.492188 424.613281 194.101563 424.398438 C 194.03125 424.417969 193.957031 424.441406 193.886719 424.464844 L 193.859375 424.386719 C 181.160156 423.78125 166.378906 425.078125 156.363281 433.726563 C 163.382813 438.210938 174.078125 442.765625 191.367188 442.769531 C 196.5625 442.769531 206.253906 442.140625 208.8125 441.402344 C 213.847656 439.953125 219.714844 435.835938 221.859375 433.742188 C 218.035156 430.398438 213.09375 427.632813 208.496094 425.917969 "/>
<path style=" stroke:none;fill-rule:evenodd;fill:rgb(0%,65.098572%,31.399536%);fill-opacity:1;" d="M 218.378906 412.003906 C 212.117188 416.335938 204.683594 420.15625 197.632813 423.078125 C 201.035156 423.34375 204.65625 423.765625 208.503906 424.355469 C 213.777344 421.027344 217.515625 418.761719 221.328125 413.597656 C 220.453125 412.957031 219.363281 412.449219 218.378906 412.003906 "/>
<path style=" stroke:none;fill-rule:evenodd;fill:rgb(0%,65.098572%,31.399536%);fill-opacity:1;" d="M 156.683594 431.476563 C 166.992188 423.519531 181.300781 422.25 193.894531 422.84375 C 201.5625 420.316406 209.925781 415.742188 216.671875 411.296875 C 212.269531 409.625 207.183594 408.847656 201.855469 408.847656 C 194.296875 408.84375 186.269531 410.675781 179.078125 413.390625 C 172.339844 415.929688 166.335938 418.84375 161.292969 424.257813 C 159.183594 426.523438 157.605469 428.949219 156.683594 431.476563 "/>
<path style=" stroke:none;fill-rule:evenodd;fill:rgb(0%,65.098572%,31.399536%);fill-opacity:1;" d="M 215.71875 453.78125 C 208.730469 449.652344 197.269531 444.3125 191.367188 444.3125 C 174.746094 444.316406 163.953125 440.132813 156.726563 435.769531 C 157.765625 437.957031 159.472656 440.117188 161.707031 442.15625 C 171.675781 451.265625 188.371094 456.164063 201.65625 456.164063 C 206.78125 456.167969 211.617188 455.417969 215.71875 453.78125 "/>
<path style=" stroke:none;fill-rule:evenodd;fill:rgb(13.699341%,12.199402%,12.5%);fill-opacity:1;" d="M 135.804688 421.308594 C 133.796875 422.960938 131.761719 425.246094 130.007813 427.78125 C 128.253906 430.3125 126.785156 433.089844 125.945313 435.746094 L 125.945313 435.753906 L 125.941406 435.761719 C 124.269531 441.460938 123.578125 447.46875 123.578125 452.359375 C 123.578125 455.746094 123.902344 458.585938 124.507813 460.488281 L 124.757813 461.265625 L 125.519531 460.972656 C 127.148438 460.335938 128.746094 459.25 130.28125 457.871094 C 134.871094 453.734375 138.964844 446.972656 140.894531 441.445313 L 140.894531 441.441406 L 140.898438 441.433594 C 142.007813 438.042969 142.394531 434.535156 142.398438 431.300781 C 142.394531 426.183594 141.425781 421.753906 140.722656 419.476563 L 140.492188 418.734375 C 138.753906 419.292969 137.238281 420.175781 135.804688 421.308594 "/>
<path style=" stroke:none;fill-rule:evenodd;fill:rgb(0%,65.098572%,31.399536%);fill-opacity:1;" d="M 139.503906 420.738281 C 140.128906 423.054688 140.855469 426.988281 140.855469 431.300781 C 140.855469 439.273438 138.15625 445.691406 133.410156 452.082031 C 132.101563 453.835938 130.6875 455.433594 129.25 456.726563 C 128.105469 457.753906 126.90625 458.625 125.78125 459.191406 L 125.722656 459.078125 C 125.34375 457.425781 125.117188 455.074219 125.117188 452.359375 C 125.117188 448.613281 125.535156 444.15625 126.515625 439.726563 C 127.019531 437.460938 127.992188 434.730469 128.386719 433.699219 C 129.390625 431.089844 131.207031 428.546875 133.035156 426.320313 C 134.25 424.839844 135.539063 423.523438 136.78125 422.5 C 137.695313 421.75 138.699219 421.121094 139.503906 420.738281 "/>
<path style=" stroke:none;fill-rule:evenodd;fill:rgb(13.699341%,12.199402%,12.5%);fill-opacity:1;" d="M 150.039063 421.703125 C 152.046875 423.351563 154.082031 425.636719 155.835938 428.171875 C 157.589844 430.703125 159.054688 433.484375 159.894531 436.136719 L 159.902344 436.152344 C 161.570313 441.851563 162.265625 447.859375 162.265625 452.75 C 162.261719 456.136719 161.941406 458.976563 161.335938 460.878906 L 161.085938 461.65625 L 160.320313 461.363281 C 158.691406 460.730469 157.097656 459.640625 155.5625 458.261719 C 150.96875 454.125 146.878906 447.363281 144.949219 441.839844 L 144.945313 441.832031 L 144.945313 441.824219 C 143.835938 438.433594 143.445313 434.925781 143.445313 431.691406 C 143.445313 426.578125 144.414063 422.144531 145.121094 419.871094 L 145.351563 419.125 C 147.089844 419.683594 148.605469 420.566406 150.039063 421.703125 "/>
<path style=" stroke:none;fill-rule:evenodd;fill:rgb(0%,65.098572%,31.399536%);fill-opacity:1;" d="M 146.339844 421.128906 C 145.714844 423.445313 144.984375 427.378906 144.988281 431.691406 C 144.988281 439.667969 147.6875 446.082031 152.433594 452.472656 C 153.742188 454.226563 155.152344 455.824219 156.59375 457.117188 C 157.738281 458.144531 158.9375 459.015625 160.0625 459.582031 L 160.121094 459.472656 C 160.496094 457.816406 160.726563 455.464844 160.726563 452.75 C 160.726563 449.007813 160.308594 444.546875 159.324219 440.121094 C 158.824219 437.851563 157.851563 435.125 157.453125 434.089844 C 156.453125 431.480469 154.636719 428.9375 152.808594 426.710938 C 151.589844 425.230469 150.304688 423.914063 149.058594 422.890625 C 148.148438 422.140625 147.140625 421.515625 146.339844 421.128906 "/>
<path style=" stroke:none;fill-rule:evenodd;fill:rgb(13.699341%,12.199402%,12.5%);fill-opacity:1;" d="M 135.542969 445.832031 L 150.210938 445.832031 L 150.210938 415.878906 L 135.542969 415.878906 L 135.542969 445.832031 "/>
<path style=" stroke:none;fill-rule:evenodd;fill:rgb(90.19928%,90.59906%,90.99884%);fill-opacity:1;" d="M 137.085938 417.421875 L 148.667969 417.421875 L 148.667969 444.289063 L 137.085938 444.289063 L 137.085938 417.421875 "/>
<path style=" stroke:none;fill-rule:nonzero;fill:rgb(0%,68.199158%,93.699646%);fill-opacity:1;" d="M 177.390625 321.226563 L 196.421875 321.226563 L 186.808594 296.957031 Z M 78.777344 320.3125 L 94.394531 320.3125 L 86.503906 300.394531 Z M 91.457031 264.171875 L 123.890625 349.015625 C 124.890625 351.628906 126.097656 353.683594 128.375 353.683594 L 130.902344 353.683594 L 130.902344 260.09375 C 130.902344 256.898438 130.617188 253.890625 125.117188 252.996094 C 111.960938 250.855469 88.558594 244.863281 93.382813 226.699219 C 103.976563 230.980469 119.5625 234.414063 130.949219 234.414063 L 179.449219 234.414063 C 182.089844 234.414063 183.742188 233.566406 184.5625 232.519531 L 187.839844 228.351563 C 190.152344 225.40625 193.132813 224.257813 193.84375 228.765625 L 199.757813 266.226563 C 200.5625 271.328125 195.890625 271.316406 193.921875 266.960938 L 189.023438 256.097656 C 188.1875 254.234375 186.671875 254.234375 185.089844 254.234375 L 150.058594 254.234375 L 150.058594 276.765625 L 160.382813 276.765625 C 162.695313 276.757813 163.855469 275.75 163.871094 273.738281 L 163.871094 270.050781 C 163.871094 264.964844 170.351563 264.441406 170.34375 270.28125 L 170.3125 289.066406 L 170.347656 296.25 C 170.367188 301.304688 163.871094 301 163.871094 296.289063 L 163.871094 291.789063 C 163.871094 290.007813 162.792969 289.03125 160.824219 289.03125 L 150.058594 289.03125 L 150.058594 353.683594 L 154.035156 353.683594 L 188.070313 264.175781 L 208.058594 317.160156 L 221.847656 353.683594 L 228.011719 353.683594 L 227.96875 359.824219 L 196.429688 359.824219 L 196.445313 353.683594 L 205.277344 353.683594 C 207.773438 353.683594 208.363281 351.199219 207.398438 348.773438 L 200.050781 330.34375 L 173.914063 330.34375 L 166.835938 349.355469 C 166.019531 351.546875 165.558594 353.683594 169.09375 353.683594 L 177.222656 353.683594 L 177.222656 359.824219 L 150.171875 359.824219 C 150.0625 375.371094 162.722656 381.667969 175.390625 378.535156 C 172.816406 386.886719 166.636719 392.644531 155.148438 392.644531 C 139.933594 392.644531 127.699219 380.648438 116.777344 371.347656 C 120.042969 370.210938 123.183594 368.839844 125.808594 366.535156 C 127.128906 365.371094 129.46875 362.0625 130.128906 359.824219 L 96.171875 359.824219 L 96.171875 353.683594 L 102.933594 353.683594 C 104.28125 353.636719 107.050781 353.839844 105.046875 348.878906 L 97.609375 330.484375 L 75.105469 330.488281 L 66.535156 351.621094 C 66.21875 352.410156 66.734375 353.683594 68.765625 353.683594 L 77.007813 353.683594 L 77.007813 359.824219 L 53.84375 359.824219 L 53.84375 353.683594 L 55.089844 353.683594 C 56.316406 353.683594 57.835938 352.972656 58.269531 351.820313 L 91.457031 264.171875 "/>
<path style=" stroke:none;fill-rule:nonzero;fill:rgb(17.999268%,18.798828%,57.299805%);fill-opacity:1;" d="M 176.613281 322.292969 C 176.253906 322.296875 175.988281 321.90625 176.121094 321.570313 L 186.308594 295.3125 C 186.476563 294.882813 187.128906 294.882813 187.296875 295.308594 L 197.699219 321.492188 C 197.835938 321.832031 197.566406 322.285156 197.203125 322.285156 Z M 78.140625 321.1875 C 77.84375 321.1875 77.625 320.871094 77.734375 320.59375 L 86.09375 299.046875 C 86.230469 298.691406 86.769531 298.691406 86.90625 299.039063 L 95.445313 320.53125 C 95.554688 320.808594 95.335938 321.183594 95.039063 321.183594 Z M 91.457031 266.335938 L 58.988281 352.09375 C 58.71875 352.8125 58.148438 353.390625 57.460938 353.792969 C 56.734375 354.21875 55.863281 354.457031 55.089844 354.457031 L 54.613281 354.457031 L 54.613281 359.050781 L 76.234375 359.050781 L 76.234375 354.457031 L 68.765625 354.457031 C 68.148438 354.457031 67.636719 354.355469 67.21875 354.183594 C 66.695313 353.972656 66.316406 353.652344 66.066406 353.292969 C 65.800781 352.910156 65.679688 352.484375 65.679688 352.078125 C 65.679688 351.816406 65.730469 351.5625 65.824219 351.332031 L 74.390625 330.199219 C 74.480469 329.976563 74.863281 329.71875 75.105469 329.71875 L 97.609375 329.714844 C 97.847656 329.714844 98.230469 329.976563 98.324219 330.199219 L 105.757813 348.589844 C 107.246094 352.265625 106.34375 353.625 105.011719 354.164063 C 104.378906 354.417969 103.710938 354.4375 103.171875 354.449219 C 103.109375 354.449219 103.046875 354.453125 102.960938 354.457031 L 96.941406 354.457031 L 96.941406 359.050781 L 130.128906 359.050781 C 130.621094 359.050781 131.007813 359.566406 130.867188 360.039063 C 130.539063 361.152344 129.839844 362.488281 129.050781 363.714844 C 128.132813 365.140625 127.074219 366.449219 126.316406 367.113281 L 126.3125 367.113281 C 124.949219 368.3125 123.453125 369.265625 121.878906 370.066406 C 120.71875 370.65625 119.515625 371.160156 118.285156 371.621094 C 118.949219 372.191406 119.714844 372.855469 120.484375 373.523438 C 130.488281 382.179688 141.6875 391.871094 155.148438 391.871094 C 160.441406 391.871094 164.554688 390.621094 167.675781 388.449219 C 170.753906 386.300781 172.882813 383.238281 174.226563 379.578125 C 172.445313 379.929688 170.675781 380.097656 168.949219 380.085938 C 164.558594 380.054688 160.429688 378.859375 157.105469 376.511719 C 153.765625 374.152344 151.246094 370.636719 150.09375 365.980469 C 149.628906 364.105469 149.386719 362.050781 149.402344 359.820313 C 149.402344 359.4375 149.789063 359.050781 150.171875 359.050781 L 176.453125 359.050781 L 176.453125 354.457031 L 169.09375 354.457031 C 166.894531 354.457031 165.910156 353.695313 165.59375 352.546875 C 165.3125 351.53125 165.660156 350.308594 166.113281 349.085938 L 173.191406 330.074219 C 173.28125 329.839844 173.664063 329.570313 173.914063 329.570313 L 200.050781 329.570313 C 200.292969 329.570313 200.679688 329.835938 200.769531 330.058594 L 208.113281 348.492188 C 208.4375 349.308594 208.609375 350.140625 208.609375 350.90625 C 208.609375 351.628906 208.457031 352.300781 208.148438 352.867188 C 207.816406 353.46875 207.316406 353.941406 206.640625 354.210938 C 206.242188 354.371094 205.789063 354.457031 205.277344 354.457031 L 197.214844 354.457031 L 197.203125 359.050781 L 227.203125 359.050781 L 227.234375 354.457031 L 221.847656 354.457031 C 221.597656 354.457031 221.214844 354.1875 221.128906 353.957031 L 207.339844 317.429688 L 188.066406 266.351563 L 154.753906 353.957031 C 154.664063 354.1875 154.28125 354.457031 154.035156 354.457031 L 150.058594 354.457031 C 149.675781 354.457031 149.289063 354.070313 149.289063 353.683594 L 149.289063 289.03125 C 149.289063 288.644531 149.675781 288.257813 150.058594 288.257813 L 160.824219 288.257813 C 162.007813 288.257813 162.941406 288.570313 163.601563 289.167969 C 164.285156 289.785156 164.640625 290.671875 164.640625 291.789063 L 164.640625 296.289063 C 164.640625 297.660156 165.304688 298.554688 166.148438 298.9375 C 166.472656 299.085938 166.820313 299.160156 167.171875 299.160156 C 167.515625 299.160156 167.859375 299.089844 168.171875 298.945313 C 168.96875 298.574219 169.582031 297.691406 169.574219 296.253906 L 169.542969 289.066406 L 169.570313 270.28125 C 169.574219 268.539063 168.941406 267.5 168.121094 267.070313 C 167.820313 266.914063 167.492188 266.835938 167.160156 266.839844 C 166.824219 266.839844 166.484375 266.921875 166.171875 267.078125 C 165.316406 267.511719 164.640625 268.523438 164.640625 270.050781 L 164.640625 273.738281 C 164.632813 274.976563 164.25 275.925781 163.492188 276.585938 C 162.765625 277.214844 161.730469 277.53125 160.382813 277.535156 L 150.058594 277.535156 C 149.675781 277.535156 149.289063 277.148438 149.289063 276.765625 L 149.289063 254.234375 C 149.289063 253.847656 149.675781 253.464844 150.058594 253.464844 L 185.089844 253.464844 C 185.945313 253.464844 186.78125 253.464844 187.582031 253.738281 C 188.457031 254.035156 189.203125 254.625 189.722656 255.785156 L 189.722656 255.78125 L 194.625 266.644531 C 195.269531 268.078125 196.21875 268.960938 197.109375 269.265625 C 197.441406 269.378906 197.757813 269.40625 198.027344 269.34375 C 198.265625 269.289063 198.480469 269.15625 198.648438 268.945313 C 199.027344 268.46875 199.199219 267.613281 198.996094 266.34375 L 193.085938 228.882813 C 192.949219 228.023438 192.730469 227.414063 192.453125 227.019531 C 192.242188 226.722656 192.003906 226.570313 191.746094 226.535156 C 191.445313 226.492188 191.085938 226.589844 190.691406 226.796875 C 189.957031 227.175781 189.171875 227.902344 188.445313 228.828125 L 185.167969 232.996094 C 184.648438 233.660156 183.859375 234.25 182.777344 234.652344 C 181.878906 234.984375 180.773438 235.1875 179.449219 235.1875 L 130.949219 235.183594 C 125.359375 235.183594 118.765625 234.363281 112.238281 233.023438 C 105.710938 231.683594 99.246094 229.824219 93.921875 227.742188 C 92.125 235.929688 96.503906 241.449219 102.894531 245.191406 C 109.679688 249.164063 118.726563 251.175781 125.242188 252.234375 C 128.253906 252.726563 129.859375 253.835938 130.730469 255.285156 C 131.59375 256.71875 131.675781 258.386719 131.675781 260.09375 L 131.675781 353.683594 C 131.675781 354.070313 131.289063 354.457031 130.902344 354.457031 L 128.375 354.457031 C 126.980469 354.457031 125.921875 353.839844 125.066406 352.828125 C 124.285156 351.90625 123.695313 350.664063 123.171875 349.285156 L 91.457031 266.335938 "/>
</g>
</svg>
